<svg width="210" height="264" viewBox="0 0 210 264" fill="none" xmlns="http://www.w3.org/2000/svg">
<circle cx="90.4915" cy="56.8314" r="21.4707" fill="#F3F3F3" stroke="#333333" stroke-width="8.0515"/>
<path d="M87.8066 78.3022L114.645 115.876" stroke="#333333" stroke-width="8.0515" stroke-linecap="round"/>
<path d="M75.3779 76.9603L34.8426 103.843" stroke="#333333" stroke-width="8.0515" stroke-linecap="round"/>
<path d="M162.172 13.7434L111.615 63.5463" stroke="#333333" stroke-width="8.0515" stroke-linecap="round"/>
<path d="M12.4292 152.795L34.4742 104.211" stroke="#333333" stroke-width="8.0515" stroke-linecap="round"/>
<path d="M106.525 110.156C109.038 111.1 111.55 112.044 114.063 112.988C113.669 115.486 113.264 117.98 112.846 120.469C105.323 165.271 93.7828 208.564 78.2267 250.348C77.9881 250.989 77.7486 251.629 77.5081 252.27C76.8775 253.948 72.2288 254.117 61.798 252.115C61.0926 251.979 60.4267 251.859 59.7709 251.742C58.5246 251.274 57.2784 250.805 56.0321 250.337C55.4616 249.993 54.8809 249.646 54.2608 249.283C45.0913 243.923 41.7038 240.735 42.3345 239.056C42.5749 238.416 42.8163 237.776 43.0586 237.137C58.8612 195.445 78.6802 155.262 102.516 116.588C103.84 114.44 105.176 112.296 106.525 110.156Z" fill="#333333"/>
<path d="M117.115 111.807C114.776 113.122 112.437 114.438 110.098 115.754C110.936 118.285 111.785 120.809 112.646 123.326C128.142 168.64 147.377 211.851 170.352 252.957C170.705 253.588 171.058 254.218 171.412 254.847C172.34 256.498 177.01 256.044 187.063 252.562C187.742 252.326 188.385 252.112 189.018 251.902C190.179 251.249 191.34 250.596 192.502 249.942C193.009 249.51 193.526 249.072 194.08 248.614C202.275 241.83 205.088 238.075 204.159 236.424C203.805 235.795 203.45 235.166 203.094 234.537C179.89 193.56 152.946 154.686 122.264 117.915C120.559 115.873 118.843 113.836 117.115 111.807Z" fill="#333333"/>
<circle cx="13.6864" cy="157.036" r="8.0515" fill="#FF5500" stroke="#333333" stroke-width="2.68383"/>
<path d="M62.9225 237.236C67.7615 238.767 71.7709 241.108 74.3518 243.593C76.9999 246.142 77.8399 248.508 77.2953 250.229C76.7507 251.95 74.7023 253.403 71.0697 253.965C67.5295 254.512 62.9032 254.12 58.0643 252.589C53.2253 251.058 49.2158 248.717 46.635 246.233C43.9867 243.683 43.1469 241.317 43.6914 239.596C44.236 237.875 46.2842 236.422 49.917 235.861C53.4573 235.313 58.0834 235.705 62.9225 237.236Z" fill="#F3F3F3" stroke="#333333" stroke-width="2.68383"/>
<path d="M185.188 239.775C189.796 237.544 194.354 236.473 197.963 236.494C201.669 236.515 203.914 237.655 204.698 239.275C205.482 240.894 204.984 243.362 202.702 246.282C200.481 249.126 196.814 252.038 192.206 254.269C187.598 256.5 183.04 257.57 179.431 257.55C175.726 257.528 173.481 256.388 172.697 254.769C171.913 253.149 172.411 250.682 174.692 247.762C176.914 244.918 180.581 242.006 185.188 239.775Z" fill="#F3F3F3" stroke="#333333" stroke-width="2.68383"/>
<circle cx="165.519" cy="9.39342" r="8.0515" fill="#FF5500" stroke="#333333" stroke-width="2.68383"/>
</svg>
